<svg width="707" height="129" viewBox="0 0 707 129" fill="none" xmlns="http://www.w3.org/2000/svg">
<path d="M80.7259 23.1818H89.1804V69.4091C89.1804 74.1818 88.0554 78.4432 85.8054 82.1932C83.5781 85.9205 80.4304 88.8636 76.3622 91.0227C72.294 93.1591 67.5213 94.2273 62.044 94.2273C56.5668 94.2273 51.794 93.1591 47.7259 91.0227C43.6577 88.8636 40.4986 85.9205 38.2486 82.1932C36.0213 78.4432 34.9077 74.1818 34.9077 69.4091V23.1818H43.3622V68.7273C43.3622 72.1364 44.1122 75.1705 45.6122 77.8295C47.1122 80.4659 49.2486 82.5455 52.0213 84.0682C54.8168 85.5682 58.1577 86.3182 62.044 86.3182C65.9304 86.3182 69.2713 85.5682 72.0668 84.0682C74.8622 82.5455 76.9986 80.4659 78.4759 77.8295C79.9759 75.1705 80.7259 72.1364 80.7259 68.7273V23.1818ZM110.155 112.636C108.791 112.636 107.575 112.523 106.507 112.295C105.439 112.091 104.7 111.886 104.291 111.682L106.337 104.591C108.291 105.091 110.018 105.273 111.518 105.136C113.018 105 114.348 104.33 115.507 103.125C116.689 101.943 117.768 100.023 118.746 97.3636L120.246 93.2727L100.882 40.6364H109.609L124.064 82.3636H124.609L139.064 40.6364H147.791L125.564 100.636C124.564 103.341 123.325 105.58 121.848 107.352C120.371 109.148 118.655 110.477 116.7 111.341C114.768 112.205 112.587 112.636 110.155 112.636ZM178.49 94.0909C173.445 94.0909 169.092 92.9773 165.433 90.75C161.797 88.5 158.99 85.3636 157.013 81.3409C155.058 77.2955 154.081 72.5909 154.081 67.2273C154.081 61.8636 155.058 57.1364 157.013 53.0455C158.99 48.9318 161.74 45.7273 165.263 43.4318C168.808 41.1136 172.945 39.9545 177.672 39.9545C180.399 39.9545 183.092 40.4091 185.751 41.3182C188.411 42.2273 190.831 43.7045 193.013 45.75C195.195 47.7727 196.933 50.4545 198.229 53.7955C199.524 57.1364 200.172 61.25 200.172 66.1364V69.5455H159.808V62.5909H191.99C191.99 59.6364 191.399 57 190.217 54.6818C189.058 52.3636 187.399 50.5341 185.24 49.1932C183.104 47.8523 180.581 47.1818 177.672 47.1818C174.467 47.1818 171.695 47.9773 169.354 49.5682C167.036 51.1364 165.251 53.1818 164.001 55.7045C162.751 58.2273 162.126 60.9318 162.126 63.8182V68.4545C162.126 72.4091 162.808 75.7614 164.172 78.5114C165.558 81.2386 167.479 83.3182 169.933 84.75C172.388 86.1591 175.24 86.8636 178.49 86.8636C180.604 86.8636 182.513 86.5682 184.217 85.9773C185.945 85.3636 187.433 84.4545 188.683 83.25C189.933 82.0227 190.899 80.5 191.581 78.6818L199.354 80.8636C198.536 83.5 197.161 85.8182 195.229 87.8182C193.297 89.7955 190.911 91.3409 188.07 92.4545C185.229 93.5455 182.036 94.0909 178.49 94.0909ZM220.456 61.5V93H212.411V40.6364H220.183V48.8182H220.865C222.092 46.1591 223.956 44.0227 226.456 42.4091C228.956 40.7727 232.183 39.9545 236.138 39.9545C239.683 39.9545 242.786 40.6818 245.445 42.1364C248.104 43.5682 250.172 45.75 251.649 48.6818C253.126 51.5909 253.865 55.2727 253.865 59.7273V93H245.82V60.2727C245.82 56.1591 244.751 52.9545 242.615 50.6591C240.479 48.3409 237.547 47.1818 233.82 47.1818C231.251 47.1818 228.956 47.7386 226.933 48.8523C224.933 49.9659 223.354 51.5909 222.195 53.7273C221.036 55.8636 220.456 58.4545 220.456 61.5ZM289.49 93V23.1818H317.036C322.331 23.1818 326.842 24.1932 330.57 26.2159C334.297 28.2159 337.138 31 339.092 34.5682C341.07 38.1136 342.058 42.2045 342.058 46.8409C342.058 51.4773 341.058 55.5682 339.058 59.1136C337.058 62.6591 334.161 65.4205 330.365 67.3977C326.592 69.375 322.024 70.3636 316.661 70.3636H299.104V58.5341H314.274C317.115 58.5341 319.456 58.0455 321.297 57.0682C323.161 56.0682 324.547 54.6932 325.456 52.9432C326.388 51.1705 326.854 49.1364 326.854 46.8409C326.854 44.5227 326.388 42.5 325.456 40.7727C324.547 39.0227 323.161 37.6705 321.297 36.7159C319.433 35.7386 317.07 35.25 314.206 35.25H304.251V93H289.49ZM365.896 62.7273V93H351.374V23.1818H365.487V49.875H366.101C367.283 46.7841 369.192 44.3636 371.828 42.6136C374.464 40.8409 377.771 39.9545 381.749 39.9545C385.385 39.9545 388.555 40.75 391.26 42.3409C393.987 43.9091 396.101 46.1705 397.601 49.125C399.124 52.0568 399.874 55.5682 399.851 59.6591V93H385.328V62.25C385.351 59.0227 384.533 56.5114 382.874 54.7159C381.237 52.9205 378.942 52.0227 375.987 52.0227C374.01 52.0227 372.26 52.4432 370.737 53.2841C369.237 54.125 368.055 55.3523 367.192 56.9659C366.351 58.5568 365.919 60.4773 365.896 62.7273ZM444.859 70.7045V40.6364H459.382V93H445.439V83.4886H444.893C443.712 86.5568 441.746 89.0227 438.996 90.8864C436.268 92.75 432.939 93.6818 429.007 93.6818C425.507 93.6818 422.428 92.8864 419.768 91.2955C417.109 89.7045 415.03 87.4432 413.53 84.5114C412.053 81.5795 411.303 78.0682 411.28 73.9773V40.6364H425.803V71.3864C425.825 74.4773 426.655 76.9205 428.291 78.7159C429.928 80.5114 432.121 81.4091 434.871 81.4091C436.621 81.4091 438.257 81.0114 439.78 80.2159C441.303 79.3977 442.53 78.1932 443.462 76.6023C444.416 75.0114 444.882 73.0455 444.859 70.7045ZM494.658 94.0227C489.362 94.0227 484.783 92.8977 480.919 90.6477C477.078 88.375 474.112 85.2159 472.021 81.1705C469.93 77.1023 468.885 72.3864 468.885 67.0227C468.885 61.6136 469.93 56.8864 472.021 52.8409C474.112 48.7727 477.078 45.6136 480.919 43.3636C484.783 41.0909 489.362 39.9545 494.658 39.9545C499.953 39.9545 504.521 41.0909 508.362 43.3636C512.226 45.6136 515.203 48.7727 517.294 52.8409C519.385 56.8864 520.43 61.6136 520.43 67.0227C520.43 72.3864 519.385 77.1023 517.294 81.1705C515.203 85.2159 512.226 88.375 508.362 90.6477C504.521 92.8977 499.953 94.0227 494.658 94.0227ZM494.726 82.7727C497.135 82.7727 499.146 82.0909 500.76 80.7273C502.374 79.3409 503.589 77.4545 504.408 75.0682C505.249 72.6818 505.669 69.9659 505.669 66.9205C505.669 63.875 505.249 61.1591 504.408 58.7727C503.589 56.3864 502.374 54.5 500.76 53.1136C499.146 51.7273 497.135 51.0341 494.726 51.0341C492.294 51.0341 490.249 51.7273 488.589 53.1136C486.953 54.5 485.714 56.3864 484.874 58.7727C484.055 61.1591 483.646 63.875 483.646 66.9205C483.646 69.9659 484.055 72.6818 484.874 75.0682C485.714 77.4545 486.953 79.3409 488.589 80.7273C490.249 82.0909 492.294 82.7727 494.726 82.7727ZM544.396 62.7273V93H529.874V40.6364H543.714V49.875H544.328C545.487 46.8295 547.43 44.4205 550.158 42.6477C552.885 40.8523 556.192 39.9545 560.078 39.9545C563.714 39.9545 566.885 40.75 569.589 42.3409C572.294 43.9318 574.396 46.2045 575.896 49.1591C577.396 52.0909 578.146 55.5909 578.146 59.6591V93H563.624V62.25C563.646 59.0455 562.828 56.5455 561.169 54.75C559.51 52.9318 557.226 52.0227 554.317 52.0227C552.362 52.0227 550.635 52.4432 549.135 53.2841C547.658 54.125 546.499 55.3523 545.658 56.9659C544.839 58.5568 544.419 60.4773 544.396 62.7273ZM613.183 113.727C608.479 113.727 604.445 113.08 601.081 111.784C597.74 110.511 595.081 108.773 593.104 106.568C591.126 104.364 589.842 101.886 589.251 99.1364L602.683 97.3295C603.092 98.375 603.74 99.3523 604.626 100.261C605.513 101.17 606.683 101.898 608.138 102.443C609.615 103.011 611.411 103.295 613.524 103.295C616.683 103.295 619.286 102.523 621.331 100.977C623.399 99.4545 624.433 96.8977 624.433 93.3068V83.7273H623.82C623.183 85.1818 622.229 86.5568 620.956 87.8523C619.683 89.1477 618.047 90.2045 616.047 91.0227C614.047 91.8409 611.661 92.25 608.888 92.25C604.956 92.25 601.376 91.3409 598.149 89.5227C594.945 87.6818 592.388 84.875 590.479 81.1023C588.592 77.3068 587.649 72.5114 587.649 66.7159C587.649 60.7841 588.615 55.8295 590.547 51.8523C592.479 47.875 595.047 44.8977 598.251 42.9205C601.479 40.9432 605.013 39.9545 608.854 39.9545C611.786 39.9545 614.24 40.4545 616.217 41.4545C618.195 42.4318 619.786 43.6591 620.99 45.1364C622.217 46.5909 623.161 48.0227 623.82 49.4318H624.365V40.6364H638.786V93.5114C638.786 97.9659 637.695 101.693 635.513 104.693C633.331 107.693 630.308 109.943 626.445 111.443C622.604 112.966 618.183 113.727 613.183 113.727ZM613.49 81.3409C615.831 81.3409 617.808 80.7614 619.422 79.6023C621.058 78.4205 622.308 76.7386 623.172 74.5568C624.058 72.3523 624.501 69.7159 624.501 66.6477C624.501 63.5795 624.07 60.9205 623.206 58.6705C622.342 56.3977 621.092 54.6364 619.456 53.3864C617.82 52.1364 615.831 51.5114 613.49 51.5114C611.104 51.5114 609.092 52.1591 607.456 53.4545C605.82 54.7273 604.581 56.5 603.74 58.7727C602.899 61.0455 602.479 63.6705 602.479 66.6477C602.479 69.6705 602.899 72.2841 603.74 74.4886C604.604 76.6705 605.842 78.3636 607.456 79.5682C609.092 80.75 611.104 81.3409 613.49 81.3409Z" fill="white"/>
<circle cx="697" cy="88" r="10" fill="#EA4335"/>
</svg>
