<svg width="605" height="91" viewBox="0 0 605 91" fill="none" xmlns="http://www.w3.org/2000/svg">
<path d="M46.7259 0.181816H55.1804V46.4091C55.1804 51.1818 54.0554 55.4432 51.8054 59.1932C49.5781 62.9205 46.4304 65.8636 42.3622 68.0227C38.294 70.1591 33.5213 71.2273 28.044 71.2273C22.5668 71.2273 17.794 70.1591 13.7259 68.0227C9.65767 65.8636 6.49858 62.9205 4.24858 59.1932C2.02131 55.4432 0.907671 51.1818 0.907671 46.4091V0.181816H9.36222V45.7273C9.36222 49.1364 10.1122 52.1705 11.6122 54.8295C13.1122 57.4659 15.2486 59.5455 18.0213 61.0682C20.8168 62.5682 24.1577 63.3182 28.044 63.3182C31.9304 63.3182 35.2713 62.5682 38.0668 61.0682C40.8622 59.5455 42.9986 57.4659 44.4759 54.8295C45.9759 52.1705 46.7259 49.1364 46.7259 45.7273V0.181816ZM76.1548 89.6364C74.7912 89.6364 73.5753 89.5227 72.5071 89.2955C71.4389 89.0909 70.7003 88.8864 70.2912 88.6818L72.3366 81.5909C74.2912 82.0909 76.0185 82.2727 77.5185 82.1364C79.0185 82 80.348 81.3295 81.5071 80.125C82.6889 78.9432 83.7685 77.0227 84.7457 74.3636L86.2457 70.2727L66.8821 17.6364H75.6094L90.0639 59.3636H90.6094L105.064 17.6364H113.791L91.5639 77.6364C90.5639 80.3409 89.3253 82.5795 87.848 84.3523C86.3707 86.1477 84.6548 87.4773 82.7003 88.3409C80.7685 89.2045 78.5866 89.6364 76.1548 89.6364ZM144.49 71.0909C139.445 71.0909 135.092 69.9773 131.433 67.75C127.797 65.5 124.99 62.3636 123.013 58.3409C121.058 54.2955 120.081 49.5909 120.081 44.2273C120.081 38.8636 121.058 34.1364 123.013 30.0455C124.99 25.9318 127.74 22.7273 131.263 20.4318C134.808 18.1136 138.945 16.9545 143.672 16.9545C146.399 16.9545 149.092 17.4091 151.751 18.3182C154.411 19.2273 156.831 20.7045 159.013 22.75C161.195 24.7727 162.933 27.4545 164.229 30.7955C165.524 34.1364 166.172 38.25 166.172 43.1364V46.5455H125.808V39.5909H157.99C157.99 36.6364 157.399 34 156.217 31.6818C155.058 29.3636 153.399 27.5341 151.24 26.1932C149.104 24.8523 146.581 24.1818 143.672 24.1818C140.467 24.1818 137.695 24.9773 135.354 26.5682C133.036 28.1364 131.251 30.1818 130.001 32.7045C128.751 35.2273 128.126 37.9318 128.126 40.8182V45.4545C128.126 49.4091 128.808 52.7614 130.172 55.5114C131.558 58.2386 133.479 60.3182 135.933 61.75C138.388 63.1591 141.24 63.8636 144.49 63.8636C146.604 63.8636 148.513 63.5682 150.217 62.9773C151.945 62.3636 153.433 61.4545 154.683 60.25C155.933 59.0227 156.899 57.5 157.581 55.6818L165.354 57.8636C164.536 60.5 163.161 62.8182 161.229 64.8182C159.297 66.7955 156.911 68.3409 154.07 69.4545C151.229 70.5455 148.036 71.0909 144.49 71.0909ZM186.456 38.5V70H178.411V17.6364H186.183V25.8182H186.865C188.092 23.1591 189.956 21.0227 192.456 19.4091C194.956 17.7727 198.183 16.9545 202.138 16.9545C205.683 16.9545 208.786 17.6818 211.445 19.1364C214.104 20.5682 216.172 22.75 217.649 25.6818C219.126 28.5909 219.865 32.2727 219.865 36.7273V70H211.82V37.2727C211.82 33.1591 210.751 29.9545 208.615 27.6591C206.479 25.3409 203.547 24.1818 199.82 24.1818C197.251 24.1818 194.956 24.7386 192.933 25.8523C190.933 26.9659 189.354 28.5909 188.195 30.7273C187.036 32.8636 186.456 35.4545 186.456 38.5ZM255.49 70V0.181816H283.036C288.331 0.181816 292.842 1.19318 296.57 3.21591C300.297 5.21591 303.138 8 305.092 11.5682C307.07 15.1136 308.058 19.2045 308.058 23.8409C308.058 28.4773 307.058 32.5682 305.058 36.1136C303.058 39.6591 300.161 42.4205 296.365 44.3977C292.592 46.375 288.024 47.3636 282.661 47.3636H265.104V35.5341H280.274C283.115 35.5341 285.456 35.0455 287.297 34.0682C289.161 33.0682 290.547 31.6932 291.456 29.9432C292.388 28.1705 292.854 26.1364 292.854 23.8409C292.854 21.5227 292.388 19.5 291.456 17.7727C290.547 16.0227 289.161 14.6705 287.297 13.7159C285.433 12.7386 283.07 12.25 280.206 12.25H270.251V70H255.49ZM331.896 39.7273V70H317.374V0.181816H331.487V26.875H332.101C333.283 23.7841 335.192 21.3636 337.828 19.6136C340.464 17.8409 343.771 16.9545 347.749 16.9545C351.385 16.9545 354.555 17.75 357.26 19.3409C359.987 20.9091 362.101 23.1705 363.601 26.125C365.124 29.0568 365.874 32.5682 365.851 36.6591V70H351.328V39.25C351.351 36.0227 350.533 33.5114 348.874 31.7159C347.237 29.9205 344.942 29.0227 341.987 29.0227C340.01 29.0227 338.26 29.4432 336.737 30.2841C335.237 31.125 334.055 32.3523 333.192 33.9659C332.351 35.5568 331.919 37.4773 331.896 39.7273ZM410.859 47.7045V17.6364H425.382V70H411.439V60.4886H410.893C409.712 63.5568 407.746 66.0227 404.996 67.8864C402.268 69.75 398.939 70.6818 395.007 70.6818C391.507 70.6818 388.428 69.8864 385.768 68.2955C383.109 66.7045 381.03 64.4432 379.53 61.5114C378.053 58.5795 377.303 55.0682 377.28 50.9773V17.6364H391.803V48.3864C391.825 51.4773 392.655 53.9205 394.291 55.7159C395.928 57.5114 398.121 58.4091 400.871 58.4091C402.621 58.4091 404.257 58.0114 405.78 57.2159C407.303 56.3977 408.53 55.1932 409.462 53.6023C410.416 52.0114 410.882 50.0455 410.859 47.7045ZM460.658 71.0227C455.362 71.0227 450.783 69.8977 446.919 67.6477C443.078 65.375 440.112 62.2159 438.021 58.1705C435.93 54.1023 434.885 49.3864 434.885 44.0227C434.885 38.6136 435.93 33.8864 438.021 29.8409C440.112 25.7727 443.078 22.6136 446.919 20.3636C450.783 18.0909 455.362 16.9545 460.658 16.9545C465.953 16.9545 470.521 18.0909 474.362 20.3636C478.226 22.6136 481.203 25.7727 483.294 29.8409C485.385 33.8864 486.43 38.6136 486.43 44.0227C486.43 49.3864 485.385 54.1023 483.294 58.1705C481.203 62.2159 478.226 65.375 474.362 67.6477C470.521 69.8977 465.953 71.0227 460.658 71.0227ZM460.726 59.7727C463.135 59.7727 465.146 59.0909 466.76 57.7273C468.374 56.3409 469.589 54.4545 470.408 52.0682C471.249 49.6818 471.669 46.9659 471.669 43.9205C471.669 40.875 471.249 38.1591 470.408 35.7727C469.589 33.3864 468.374 31.5 466.76 30.1136C465.146 28.7273 463.135 28.0341 460.726 28.0341C458.294 28.0341 456.249 28.7273 454.589 30.1136C452.953 31.5 451.714 33.3864 450.874 35.7727C450.055 38.1591 449.646 40.875 449.646 43.9205C449.646 46.9659 450.055 49.6818 450.874 52.0682C451.714 54.4545 452.953 56.3409 454.589 57.7273C456.249 59.0909 458.294 59.7727 460.726 59.7727ZM510.396 39.7273V70H495.874V17.6364H509.714V26.875H510.328C511.487 23.8295 513.43 21.4205 516.158 19.6477C518.885 17.8523 522.192 16.9545 526.078 16.9545C529.714 16.9545 532.885 17.75 535.589 19.3409C538.294 20.9318 540.396 23.2045 541.896 26.1591C543.396 29.0909 544.146 32.5909 544.146 36.6591V70H529.624V39.25C529.646 36.0455 528.828 33.5455 527.169 31.75C525.51 29.9318 523.226 29.0227 520.317 29.0227C518.362 29.0227 516.635 29.4432 515.135 30.2841C513.658 31.125 512.499 32.3523 511.658 33.9659C510.839 35.5568 510.419 37.4773 510.396 39.7273ZM579.183 90.7273C574.479 90.7273 570.445 90.0795 567.081 88.7841C563.74 87.5114 561.081 85.7727 559.104 83.5682C557.126 81.3636 555.842 78.8864 555.251 76.1364L568.683 74.3295C569.092 75.375 569.74 76.3523 570.626 77.2614C571.513 78.1705 572.683 78.8977 574.138 79.4432C575.615 80.0114 577.411 80.2955 579.524 80.2955C582.683 80.2955 585.286 79.5227 587.331 77.9773C589.399 76.4545 590.433 73.8977 590.433 70.3068V60.7273H589.82C589.183 62.1818 588.229 63.5568 586.956 64.8523C585.683 66.1477 584.047 67.2045 582.047 68.0227C580.047 68.8409 577.661 69.25 574.888 69.25C570.956 69.25 567.376 68.3409 564.149 66.5227C560.945 64.6818 558.388 61.875 556.479 58.1023C554.592 54.3068 553.649 49.5114 553.649 43.7159C553.649 37.7841 554.615 32.8295 556.547 28.8523C558.479 24.875 561.047 21.8977 564.251 19.9205C567.479 17.9432 571.013 16.9545 574.854 16.9545C577.786 16.9545 580.24 17.4545 582.217 18.4545C584.195 19.4318 585.786 20.6591 586.99 22.1364C588.217 23.5909 589.161 25.0227 589.82 26.4318H590.365V17.6364H604.786V70.5114C604.786 74.9659 603.695 78.6932 601.513 81.6932C599.331 84.6932 596.308 86.9432 592.445 88.4432C588.604 89.9659 584.183 90.7273 579.183 90.7273ZM579.49 58.3409C581.831 58.3409 583.808 57.7614 585.422 56.6023C587.058 55.4205 588.308 53.7386 589.172 51.5568C590.058 49.3523 590.501 46.7159 590.501 43.6477C590.501 40.5795 590.07 37.9205 589.206 35.6705C588.342 33.3977 587.092 31.6364 585.456 30.3864C583.82 29.1364 581.831 28.5114 579.49 28.5114C577.104 28.5114 575.092 29.1591 573.456 30.4545C571.82 31.7273 570.581 33.5 569.74 35.7727C568.899 38.0455 568.479 40.6705 568.479 43.6477C568.479 46.6705 568.899 49.2841 569.74 51.4886C570.604 53.6705 571.842 55.3636 573.456 56.5682C575.092 57.75 577.104 58.3409 579.49 58.3409Z" fill="white"/>
</svg>
